<?xml version="1.0" encoding="iso-8859-1"?>
<!-- Generator: Adobe Illustrator 19.0.0, SVG Export Plug-In . SVG Version: 6.00 Build 0)  -->
<svg version="1.1" id="Layer_1" xmlns="http://www.w3.org/2000/svg" xmlns:xlink="http://www.w3.org/1999/xlink" x="0px" y="0px"
	 viewBox="0 0 511.999 511.999" style="enable-background:new 0 0 511.999 511.999;" xml:space="preserve">
<rect y="152.872" style="fill:#BEDDF5;" width="473.173" height="291.183"/>
<rect x="236.587" y="152.872" style="fill:#93C7EF;" width="236.587" height="291.183"/>
<rect y="67.943" style="fill:#0052B4;" width="473.173" height="97.061"/>
<circle style="fill:#FF5023;" cx="72.796" cy="116.474" r="18.199"/>
<circle style="fill:#FFDA44;" cx="133.459" cy="116.474" r="18.199"/>
<circle style="fill:#91DC5A;" cx="194.122" cy="116.474" r="18.199"/>
<g>
	<rect x="90.995" y="255.999" style="fill:#FFFFFF;" width="121.326" height="36.398"/>
	<rect x="90.995" y="328.795" style="fill:#FFFFFF;" width="121.326" height="36.398"/>
	<rect x="260.852" y="255.999" style="fill:#FFFFFF;" width="121.326" height="36.398"/>
</g>
<g>
	<rect x="236.587" y="67.943" style="fill:#003778;" width="236.587" height="97.061"/>
	<path style="fill:#003778;" d="M498.055,208.967L498.055,208.967c-19.893-21.192-53.375-21.722-73.928-1.168l-24.342,24.342
		l67.322,78.27l29.817-29.816C516.576,260.94,517.079,229.232,498.055,208.967z"/>
</g>
<polygon style="fill:#006DF0;" points="333.46,444.056 475.288,302.228 404.795,227.129 260.852,371.26 260.852,444.056 "/>
<polygon style="fill:#0052B4;" points="333.46,444.056 260.852,371.26 260.852,444.056 "/>
<g>
</g>
<g>
</g>
<g>
</g>
<g>
</g>
<g>
</g>
<g>
</g>
<g>
</g>
<g>
</g>
<g>
</g>
<g>
</g>
<g>
</g>
<g>
</g>
<g>
</g>
<g>
</g>
<g>
</g>
</svg>
